# xmcd
#
# Track frame offsets:
# 150
# 12859
# 27065
# 37312
# 46710
# 61639
# 66647
# 75327
# 96472
# 107647
# 124797
#
# Disc length: 1692 seconds
#
#
# Revision: 0
# Processed by: cddbd v1.5.1PL0 Copyright (c) Steve Scherf et al.
# Submitted via: FreeRIP 2.941 
#
DISCID=88069a0b
DTITLE=The Bad Boys - The Bad Boys
DYEAR=1999
DGENRE=
TTITLE0=It Takes One to Know One
TTITLE1=Favorite Things
TTITLE2=High Maintenance Woman
TTITLE3=I Don't Know Why
TTITLE4=On Line Lover
TTITLE5=Dixie
TTITLE6=Blackberry Blossom
TTITLE7=Louisiana
TTITLE8=Dog Kickin' Woman
TTITLE9=Bottle of Niquil
TTITLE10=????
EXTD=
EXTT0=
EXTT1=
EXTT2=
EXTT3=
EXTT4=
EXTT5=
EXTT6=
EXTT7=
EXTT8=
EXTT9=
EXTT10=
PLAYORDER=
